<?xml version="1.0" standalone="no"?>
<!DOCTYPE svg PUBLIC "-//W3C//DTD SVG 20010904//EN"
 "http://www.w3.org/TR/2001/REC-SVG-20010904/DTD/svg10.dtd">
<svg version="1.0" xmlns="http://www.w3.org/2000/svg"
 width="38.000000pt" height="38.000000pt" viewBox="0 0 411.8 385.4"
 preserveAspectRatio="xMidYMid meet">
<style type="text/css">
	.st0{fill:#AFAFAF;}
</style>
<metadata>
Created by Docfx
</metadata>
<g>
	<g id="レイヤー_1-2">
		<path class="st0" d="M151,74.8v45.6h13.9V74.8H151z M160.4,105.5h-4.8V89.7h4.8V105.5z"/>
		<path class="st0" d="M220.7,106.5c8.6,1,14.8,8.9,13.8,17.5s-8.9,14.8-17.5,13.8c-4.3-0.5-8.1-2.7-10.7-6.1
			c-5.3,6.9-15.1,8.2-22,2.9c-6.9-5.3-8.2-15.1-2.9-22c2.5-3.3,6.3-5.5,10.4-6c-3.4-8,0.4-17.1,8.3-20.5c8-3.4,17.1,0.4,20.5,8.3
			C222.4,98.2,222.4,102.6,220.7,106.5z M228.6,122.1c0-5.4-4.5-9.8-9.9-9.8c-5.4,0-9.8,4.5-9.8,9.9c0,5.4,4.4,9.8,9.8,9.8
			C224.2,132,228.7,127.6,228.6,122.1C228.6,122.1,228.6,122.1,228.6,122.1z M216.2,100.4c0-5.4-4.5-9.8-9.9-9.8
			c-5.4,0-9.8,4.5-9.8,9.9c0,5.4,4.4,9.8,9.8,9.8C211.8,110.3,216.2,105.9,216.2,100.4z M203.7,122.1c0-5.4-4.5-9.8-9.9-9.8
			c-5.4,0-9.8,4.5-9.8,9.9c0,5.4,4.4,9.8,9.9,9.8C199.3,132,203.7,127.6,203.7,122.1C203.7,122.1,203.7,122.1,203.7,122.1z"/>
		<path class="st0" d="M220.7,106.5c3.3-8-0.4-17.1-8.4-20.5s-17.1,0.4-20.5,8.4c-1.6,3.9-1.6,8.2,0,12.1c-8.6,1-14.8,8.9-13.8,17.5
			s8.9,14.8,17.5,13.8c4.3-0.5,8.1-2.7,10.7-6.1c5.3,6.9,15.1,8.2,22,2.9c6.9-5.3,8.2-15.1,2.9-22
			C228.7,109.2,224.9,107,220.7,106.5z"/>
		<ellipse class="st0" cx="193.9" cy="122.1" rx="9.9" ry="9.9"/>
		<path class="st0" d="M216.2,100.4c0,5.4-4.5,9.8-9.9,9.8c-5.4,0-9.8-4.5-9.8-9.9c0-5.4,4.4-9.8,9.8-9.8
			C211.8,90.5,216.2,94.9,216.2,100.4C216.2,100.4,216.2,100.4,216.2,100.4z"/>
		<ellipse class="st0" cx="218.8" cy="122.1" rx="9.9" ry="9.9"/>
		<path class="st0" d="M209.6,177.1V143c3.8-0.9,6.6-3.2,6.6-6c0-3.5-4.4-6.4-9.9-6.4s-9.8,2.9-9.8,6.4c0,2.8,2.8,5.2,6.6,6v34.1
			c0,0-0.9,208.3,3,208.3C210.4,385.4,209.6,177.1,209.6,177.1z"/>
		<polygon class="st0" points="143.7,69.3 148.5,81.8 153.2,81.8 154.8,81.8 162.7,81.8 167.3,81.8 172.2,69.3 		"/>
		<polygon class="st0" points="163,129.7 152.9,129.7 142.7,129.7 147.9,114.8 152.9,114.8 154.6,114.8 163,114.8 168,114.8 
			173.1,129.7 		"/>
		<path class="st0" d="M164.8,185c0.1-2.4,0.1-4.7,0.1-7.1v-38.4H151V185c-0.1,9.8-1,19.6-2.7,29.2c-1.2,6.8-2.5,14.1-5.8,20.3
			c-1.2,2.3-2.5,5-4.7,6.5c-3.1,2.3-7.3,1.4-10,4.2c-1.5,1.8-2.6,4-3.1,6.3c-8.7,30-5.2,61.6-2.9,92.2c-1.9-24.6,1.7-51.9,6.2-76.1
			c2.3-12.4,14-12,21.7-19.8c4.7-4.8,6.5-10.1,7.8-16.5c2.3-10.9,4.4-21.9,5.9-32.9C164.2,194,164.6,189.5,164.8,185z"/>
		<path class="st0" d="M168.6,65.6h-21.3c0,0,10.7-30.9,10.7-65.6C157.9,34.7,168.6,65.6,168.6,65.6z"/>
		<polygon class="st0" points="267.9,69.3 263.1,81.8 258.5,81.8 256.9,81.8 249,81.8 244.3,81.8 239.5,69.3 		"/>
		<polygon class="st0" points="248.7,129.7 258.8,129.7 268.9,129.7 263.8,114.8 258.8,114.8 257.1,114.8 248.7,114.8 243.7,114.8 
			238.5,129.7 		"/>
		<polygon class="st0" points="268.9,133 263.8,145.9 258.8,145.9 257.1,145.9 248.7,145.9 243.7,145.9 238.5,133 		"/>
		<polygon class="st0" points="173.1,133 168,145.9 163,145.9 161.3,145.9 152.9,145.9 147.9,145.9 142.8,133 		"/>
		<path class="st0" d="M243.1,65.6h21.3c0,0-10.7-30.9-10.7-65.6C253.7,34.7,243.1,65.6,243.1,65.6z"/>
		<path class="st0" d="M244.4,85.1c-17.8-21.3-49.5-24.1-70.8-6.3c-2.3,1.9-4.4,4-6.3,6.3v17.2c8.5-21.3,32.6-31.7,53.9-23.2
			c10.6,4.2,19,12.6,23.2,23.2L244.4,85.1z"/>
		<path class="st0" d="M247.1,185c-0.1-2.4-0.1-4.7-0.1-7.1v-38.4h13.9V185c0.1,9.8,1,19.6,2.7,29.2c1.2,6.8,2.5,14.1,5.7,20.3
			c1.2,2.3,2.5,5,4.7,6.5c3.1,2.3,7.3,1.4,10,4.2c1.5,1.8,2.6,4,3.1,6.3c8.7,30,5.2,61.6,2.9,92.2c1.9-24.6-1.7-51.9-6.2-76.1
			c-2.3-12.4-14-12-21.7-19.8c-4.7-4.8-6.5-10.1-7.8-16.5c-2.3-10.9-4.4-21.9-5.9-32.9C247.7,194,247.3,189.5,247.1,185z"/>
		<path class="st0" d="M146.2,218.5c-8.6-19.6-7.7-36.2-7.7-36.2v-19.7c0-5.8,4.7-10.5,10.4-10.5c0,0,0.1,0,0.1,0l0,0l0.5,29.3
			C149.5,181.3,149.5,201.9,146.2,218.5"/>
		<path class="st0" d="M157.9,237.9c10,12.6,25.2,24.5,48.1,32.4c8.2,3.1,78.3,15.2,0.3,32.9c-9.9,2.1-29.7,11.3-0.3,22
			c11.9,3.7,1.8,48,6.4,33.3c10.9-34.8-6.1-38.1-6.1-38.1c-15.4-6.6-6.9-11.7,0-13.4c90-18.9,10.2-41.4,0-44.2
			c-24-10.4-38-24.3-46.1-37.7C159.7,229.5,159,233.7,157.9,237.9z"/>
		<path class="st0" d="M265.9,218.6c8.6-19.6,7.7-36.2,7.7-36.2v-19.8c0-5.8-4.7-10.5-10.5-10.5l0,0l-0.6,35.5
			C262.7,198,263.8,208.4,265.9,218.6"/>
		<path class="st0" d="M254.1,238.1c-10,12.6-25.2,24.5-48.1,32.4c-8.2,3.1-78.3,15.2-0.3,32.9c9.9,2,29.7,11.3,0.3,22
			c-11.9,3.7-1.8,48-6.4,33.3c-10.9-34.8,6.1-38,6.1-38c15.4-6.6,6.9-11.7,0-13.4c-90-18.9-10.2-41.3,0-44.2
			c24-10.4,38-24.3,46.1-37.7C252.3,229.6,253,233.8,254.1,238.1z"/>
		<path class="st0" d="M246.8,74.8v45.6h13.9V74.8H246.8z M256.1,105.5h-4.8V89.7h4.8L256.1,105.5z"/>
	</g>
	<g id="レイヤー_4">
		<path class="st0" d="M5.1,155.4L0,155.2C0,155.2,1.8,155.2,5.1,155.4z"/>
		<path class="st0" d="M136.1,191.9c-1.9,0.3-3.7,0.5-5.6,0.5c-18,0-25.9-12.2-66.4-25c-29.5-9.3-50.1-11.5-59-12
			c12.5,0.4,44.9,1.9,60.2,5.4c19.1,4.4,45,16.6,64.1,16.6c2.3,0,4.5-0.3,6.7-0.8L136.1,191.9z"/>
		<path class="st0" d="M275.8,176.6c2.2,0.5,4.4,0.8,6.6,0.8c19.1,0,45-12.2,64.1-16.6c15.3-3.5,47.7-4.9,60.2-5.4
			c-9,0.5-29.5,2.8-59,12c-40.5,12.8-48.4,25-66.4,25c-1.9,0-3.7-0.2-5.5-0.5V176.6z"/>
		<path class="st0" d="M201.1,174c-10.8,0.9-22.8,4.8-34.3,8.7l0.3-18.9c9.8-4.1,20.9-7.7,33.9-8.4"/>
		<path class="st0" d="M211.8,155.4c12.6,0.9,23.3,4.4,32.8,8.3v18.8c-10.9-3.7-22.4-7.4-32.8-8.4"/>
		<path class="st0" d="M411.8,155.2l-5.1,0.1C410,155.2,411.8,155.2,411.8,155.2z"/>
	</g>
	<g id="レイヤー_3">
		<path class="st0" d="M136.1,213.2c0-8.8-12-15.9-26.8-15.9s-26.8,7.1-26.8,15.9s12,15.8,26.8,15.8S136.1,221.9,136.1,213.2z
			 M109.4,223.4c-12.5,0-22.6-5.8-22.6-13s10.1-13,22.6-13s22.6,5.8,22.6,13S121.8,223.4,109.4,223.4z"/>
		<path class="st0" d="M301.3,197.5h1.2H301.3z"/>
		<path class="st0" d="M302.5,197.4h1.2H302.5z"/>
		<path class="st0" d="M303.7,197.5c11.9,0.4,21.4,6,21.4,13c0,7.2-10.1,13-22.6,13s-22.6-5.8-22.6-13c0-7,9.5-12.7,21.4-13
			c-14.2,0.4-25.6,7.3-25.6,15.8c0,5.8,5.2,10.8,13,13.6c-4.3,3.2-11.3,5.5-18.7,5.5l3.1,5.4c10.8,0,18.2-3.8,22-9.2
			c2.4,0.4,4.9,0.6,7.4,0.6c14.8,0,26.8-7.1,26.8-15.8C329.3,204.8,317.9,197.8,303.7,197.5z"/>
		<path class="st0" d="M333.7,250.9h-1.2H333.7z"/>
		<path class="st0" d="M110.2,197.5H109H110.2z"/>
		<path class="st0" d="M109,197.4h-1.2H109z"/>
		<path class="st0" d="M107.8,197.5c-11.9,0.4-21.4,6-21.4,13c0,7.2,10.1,13,22.6,13s22.6-5.8,22.6-13c0-7-9.5-12.7-21.4-13
			c14.2,0.4,25.6,7.3,25.6,15.8c0,5.8-5.2,10.8-13,13.6c4.3,3.2,11.3,5.5,18.7,5.5l-3.1,5.4c-10.8,0-18.2-3.8-22.1-9.2
			c-2.4,0.4-4.9,0.6-7.3,0.6c-14.8,0-26.8-7.1-26.8-15.8C82.2,204.8,93.6,197.8,107.8,197.5z"/>
		<path class="st0" d="M126.6,207.2c0-5.6-7.7-10.2-17.2-10.2s-17.2,4.6-17.2,10.2s7.7,10.2,17.2,10.2S126.6,212.8,126.6,207.2z
			 M109.4,213.7c-8,0-14.5-3.8-14.5-8.4s6.5-8.4,14.5-8.4s14.5,3.8,14.5,8.4S117.4,213.7,109.4,213.7z"/>
		<path class="st0" d="M119.3,203.3c0-3.3-4.5-5.9-10-5.9s-10,2.6-10,5.9s4.5,5.9,10,5.9S119.3,206.6,119.3,203.3z M109.3,207.1
			c-4.6,0-8.4-2.2-8.4-4.8s3.8-4.8,8.4-4.8s8.4,2.2,8.4,4.8S114,207.1,109.3,207.1L109.3,207.1z"/>
		<path class="st0" d="M328.7,213.3c0-8.8-12-15.8-26.8-15.8s-26.8,7.1-26.8,15.8s12,15.9,26.8,15.9S328.7,222.1,328.7,213.3z
			 M301.9,223.6c-12.5,0-22.6-5.8-22.6-13s10.1-13,22.6-13s22.6,5.8,22.6,13S314.4,223.6,301.9,223.6z"/>
		<path class="st0" d="M319.2,207.3c0-5.6-7.7-10.2-17.2-10.2s-17.2,4.6-17.2,10.2s7.7,10.2,17.2,10.2S319.2,213,319.2,207.3z
			 M301.9,213.9c-8,0-14.5-3.8-14.5-8.4s6.5-8.4,14.5-8.4s14.5,3.8,14.5,8.4S309.9,213.9,301.9,213.9z"/>
		<path class="st0" d="M311.9,203.5c0-3.3-4.5-5.9-10-5.9s-10,2.6-10,5.9s4.5,5.9,10,5.9S311.9,206.7,311.9,203.5z M301.9,207.3
			c-4.6,0-8.4-2.2-8.4-4.8s3.8-4.8,8.4-4.8s8.4,2.2,8.4,4.8S306.5,207.3,301.9,207.3L301.9,207.3z"/>
		<path class="st0" d="M206.4,197.8c-2.7-0.5-5.3-1.4-7.7-2.5c-1.3-0.6-2.5-1.4-3.6-2.3c-0.7-0.6-1.3-1.2-1.8-2
			c-0.4-0.7-0.7-1.5-0.9-2.3c-0.1-1-0.4-1.9-0.8-2.8c-0.2-0.3-0.5-0.6-0.8-0.8c-0.4-0.3-0.8-0.5-1.2-0.7c-1-0.4-2-0.6-3-0.6
			c-1.1,0-2.2,0.1-3.3,0.3c-2.2,0.5-4.4,1.4-6.3,2.6c-1.8,1.4-3.3,3.2-4.1,5.3c-0.2,0.5-0.2,1-0.1,1.5c0.1,0.5,0.4,0.9,0.7,1.3
			c0.9,0.7,1.9,1.2,3.1,1.4c1.2,0.2,2.4,0.2,3.6,0c1.2-0.2,2.4-0.5,3.5-1c-1.1,0.6-2.3,1-3.5,1.3c-1.2,0.3-2.5,0.5-3.8,0.4
			c-1.3-0.1-2.6-0.5-3.7-1.3c-0.6-0.4-1-1.1-1.3-1.8c-0.2-0.7-0.2-1.5-0.1-2.2c0.3-1.3,0.8-2.6,1.6-3.7c0.7-1.1,1.6-2.1,2.5-3
			c1-0.9,2.1-1.6,3.3-2.3c1.2-0.6,2.4-1.1,3.6-1.5c2.7-1,5.5-1.1,8.3-0.4c0.7,0.2,1.4,0.5,2.1,0.9c0.8,0.4,1.4,1,2,1.6
			c0.5,0.7,1,1.4,1.3,2.2c0.3,0.7,0.4,1.4,0.6,1.8c0.2,0.7,0.6,1.3,1.3,1.7c0.9,0.6,1.8,1,2.8,1.4c2.1,0.7,4.3,1.2,6.5,1.4
			L206.4,197.8z"/>
		<path class="st0" d="M209.5,193.6c0.9,2,0.9,4.3-0.1,6.3c-0.4,0.8-1,1.6-1.6,2.3c-0.3,0.3-0.6,0.6-0.9,0.9
			c-0.4,0.3-0.8,0.6-1.2,0.8c-1.3,0.7-2.7,1.3-4.2,1.8c-1.3,0.4-2.6,0.8-3.7,1.2c-1,0.3-1.8,0.7-2.6,1.3c-0.1,0.1-0.2,0.2-0.1,0.1
			c0-0.1,0-0.3-0.1-0.4c-0.1-0.1,0,0,0.1,0.1c0.1,0.1,0.3,0.3,0.5,0.4c1,0.6,2.1,1,3.2,1.2c1.2,0.3,2.5,0.6,3.7,0.7
			c2.6,0.3,5.2,0.5,7.8,0.4c2.6,0,5.2-0.2,7.9-0.6c1.3-0.2,2.6-0.4,3.8-0.8c0.6-0.2,1.2-0.4,1.8-0.6c0.5-0.2,1-0.6,1.4-1.1
			c0.3-0.5,0.2-1.1-0.3-1.4c-0.5-0.4-1-0.8-1.6-1c-1.2-0.5-2.5-0.8-3.8-1.1c1.3,0.1,2.7,0.3,3.9,0.7c0.7,0.2,1.3,0.5,1.9,0.9
			c0.3,0.2,0.6,0.6,0.7,0.9c0.1,0.4,0.1,0.8-0.1,1.2c-0.4,0.7-0.9,1.2-1.6,1.6c-0.6,0.3-1.2,0.6-1.9,0.9c-1.3,0.5-2.6,0.9-3.9,1.2
			c-2.6,0.6-5.3,1-8,1.3c-1.3,0.2-2.7,0.3-4.1,0.4c-1.4,0.1-2.8,0.1-4.1,0c-1.4-0.1-2.8-0.2-4.1-0.4c-1.5-0.2-2.9-0.6-4.3-1.2
			c-0.4-0.2-0.8-0.4-1.2-0.7c-0.5-0.4-0.9-0.9-1.2-1.4c-0.3-0.7-0.4-1.6-0.2-2.4c0.2-0.6,0.5-1.1,0.8-1.6c1.1-1.2,2.5-2.2,4.1-2.8
			c1.3-0.6,2.6-1.1,3.8-1.6c1.1-0.4,2.1-0.9,3-1.6c0.2-0.1,0.3-0.2,0.4-0.4l0.4-0.5c0.2-0.3,0.4-0.6,0.6-1c0.2-0.5,0.1-1-0.1-1.4
			L209.5,193.6z"/>
		<path class="st0" d="M205.5,192.3c2.9-1.1,5.9-1.7,8.9-1.9c1.5-0.1,3-0.2,4.4-0.1c1.5,0,3,0.2,4.5,0.5c2.9,0.6,5.5,1.4,8.1,1.8
			c1.3,0.2,2.5,0.3,3.8,0.3c1.1,0,2.3-0.2,3.3-0.7c0.7-0.3,1-1.1,0.7-1.8c0,0,0-0.1,0-0.1c-0.2-0.5-0.4-1-0.8-1.5
			c-0.4-0.5-0.8-0.9-1.3-1.3c-2.1-1.7-4.4-3.1-6.9-4.2c-1.2-0.6-2.5-1-3.8-1.4c-1.3-0.4-2.6-0.6-4-0.7c-1.4-0.1-2.7,0.1-4,0.6
			c-0.6,0.3-1.1,0.8-1.3,1.4c-0.2,0.7-0.1,1.4,0.3,2c-0.4-0.6-0.6-1.3-0.4-2c0.2-0.7,0.7-1.3,1.3-1.7c1.3-0.7,2.7-1,4.1-1.1
			c1.4-0.1,2.9,0,4.3,0.3c1.4,0.3,2.8,0.6,4.1,1.1c2.7,0.9,5.3,2.2,7.7,3.8c0.6,0.4,1.2,1,1.8,1.5c0.6,0.6,1,1.3,1.4,2.1
			c0.4,0.9,0.5,1.9,0.3,2.9c-0.3,1-0.9,1.9-1.8,2.5c-1.4,0.8-3,1.4-4.6,1.5c-1.5,0.2-3,0.2-4.5,0.1c-3-0.2-5.7-0.8-8.3-1.1
			c-1.3-0.1-2.5-0.2-3.8-0.1c-1.3,0.1-2.6,0.2-3.9,0.5c-2.5,0.4-4.9,1.1-7.1,2.2L205.5,192.3z"/>
		<path class="st0" d="M154.1,215.2c2.2-2.7,4.5-5.2,6.9-7.6c1.3-1.2,2.6-2.4,4-3.4c1.5-1.2,3.3-2.2,5.1-2.8
			c0.3-0.1,0.6-0.1,0.9-0.2c0.3,0,0.7,0,1,0c0.7,0,1.3,0.2,1.9,0.4c1,0.4,1.9,1,2.6,1.7c1.3,1.2,2.4,2.5,3.5,3.9
			c0.9,1.2,1.9,2.4,3.1,3.5c0.3,0.3,0.7,0.5,1.1,0.7c0,0,0,0.1,0.2-0.1c0.2-0.1,0.4-0.3,0.5-0.5c1.7-2.7,3-5.6,4.1-8.6
			c0.5-1.5,0.9-3,1.1-4.6c0.2-1.5,0.1-3.1-0.3-4.6c-0.2-0.7-0.6-1.3-1-1.9c-0.5-0.5-1.1-1-1.8-1.2c-1.5-0.5-3.1-0.8-4.7-0.7
			c-1.6,0-3.2,0.4-4.6,1.2c-0.3,0.2-0.5,0.5-0.5,0.9c0.1,0.4,0.3,0.7,0.6,0.9c0.7,0.5,1.4,0.9,2.2,1.1c-0.8-0.2-1.6-0.6-2.3-1
			c-0.4-0.2-0.7-0.6-0.8-1c-0.1-0.5,0.2-0.9,0.6-1.2c0.7-0.5,1.5-0.9,2.3-1.1c0.8-0.2,1.6-0.4,2.5-0.5c1.7-0.2,3.4-0.1,5.1,0.4
			c0.9,0.3,1.7,0.7,2.4,1.4c0.6,0.7,1.1,1.4,1.5,2.3c0.6,1.7,0.9,3.4,0.8,5.2c-0.1,1.7-0.3,3.4-0.8,5.1c-0.4,1.7-0.9,3.3-1.5,4.9
			c-0.6,1.6-1.3,3.2-2.1,4.7c-0.3,0.5-0.6,1-1.1,1.4c-0.5,0.5-1.3,0.8-2,0.9c-0.7,0-1.4-0.1-2-0.4c-0.5-0.2-0.9-0.5-1.4-0.8
			c-1.3-1.1-2.6-2.3-3.8-3.6c-1-1.2-2.1-2.2-3.3-3.2c-0.5-0.4-1-0.7-1.5-0.9c-0.3-0.1-0.7-0.1-1,0.1c-1.2,0.6-2.4,1.3-3.3,2.2
			c-1.2,1-2.2,2.1-3.3,3.3c-2.1,2.4-4.1,4.9-5.9,7.5L154.1,215.2z"/>
		<path class="st0" d="M203,250.2c1-3.7,2.1-7.4,3.5-11c0.7-1.8,1.4-3.6,2.2-5.4c0.8-1.8,1.7-3.6,2.8-5.3c1.1-1.8,2.5-3.3,4.1-4.7
			c1.6-1.4,3.3-2.5,5.3-3.4c3.8-1.6,7.5-2.1,10.3-3.9c1.4-0.9,2.4-2.2,3-3.7c0.6-1.5,0.8-3.2,0.4-4.8c-0.4-1.7-1.3-3.2-2.5-4.4
			c-1.2-1.3-2.7-2.4-4.2-3.2c-1.6-0.9-3.3-1.4-5.1-1.7c-1.8-0.3-3.6,0-5.1,0.8c-1.6,0.9-2.4,2.7-2.2,4.5c0.2,0.9,0.8,1.6,1.7,1.9
			c0.9,0.2,1.9,0.1,2.7-0.3c-0.9,0.4-1.9,0.6-2.8,0.5c-1-0.2-1.7-1-2-1.9c-0.4-2,0.4-4.1,2.1-5.2c1.7-1.1,3.7-1.6,5.7-1.3
			c4,0.4,7.7,2.1,10.6,4.8c1.5,1.4,2.7,3.2,3.3,5.1c0.6,2.1,0.6,4.3-0.1,6.3c-0.7,2.1-2,3.9-3.7,5.2c-3.5,2.5-7.4,3.3-10.4,4.9
			c-1.5,0.8-2.8,1.8-4,3c-1.2,1.2-2.2,2.5-3,4c-0.8,1.5-1.6,3.2-2.1,4.8c-0.6,1.7-1.2,3.5-1.7,5.2c-1.1,3.5-1.9,7.1-2.6,10.7
			L203,250.2z"/>
		<path class="st0" d="M219.7,174.4c-1.5,1.5-2.8,3.1-3.8,4.9c-1.1,1.7-1.8,3.7-2,5.7c-0.2,0.8,0.2,1.7,0.9,2.1
			c0.9,0.4,1.9,0.6,2.9,0.4c1-0.1,2-0.6,2.8-1.3c0.3-0.4,0.5-0.9,0.3-1.4c-0.3-0.5-0.6-0.9-1.1-1.2c0.5,0.2,1,0.6,1.3,1.1
			c0.3,0.6,0.3,1.3-0.1,1.8c-0.7,1-1.8,1.7-2.9,2c-1.2,0.4-2.5,0.4-3.7,0c-0.7-0.3-1.3-0.8-1.6-1.4c-0.4-0.6-0.6-1.3-0.6-2
			c-0.1-2.4,0.3-4.9,1.3-7.1c0.9-2.2,2.1-4.3,3.5-6.3L219.7,174.4z"/>
		<path class="st0" d="M185.2,256.6c1.6-3.1,3-6.3,4.3-9.5c1.3-3.2,2.2-6.5,2.8-9.9c0.2-0.8,0.2-1.6,0.3-2.4v-1.2c0-0.2,0-0.4,0-0.6
			l-0.1-0.6c-0.1-0.7-0.2-1.4-0.5-2c-0.3-0.7-0.7-1.3-1.2-1.8c-2.3-2.4-5.1-4.3-8.2-5.6c-1.6-0.7-3.2-1.2-4.9-1.6
			c-0.8-0.2-1.6-0.3-2.4-0.4c-0.3,0-0.7,0-1,0.1c-0.1,0-0.1,0-0.1,0s0,0,0-0.1s0.1-0.1,0.1-0.2s0-0.1,0-0.1c0.1,0.3,0.3,0.5,0.4,0.8
			c0.2,0.3,0.5,0.6,0.7,0.9c0.6,0.6,1.2,1.1,1.9,1.6c1.4,1,3,1.8,4.5,2.9c0.8,0.6,1.5,1.2,2.1,2c0.6,0.8,1.1,1.6,1.4,2.5
			c0.4,0.9,0.5,1.8,0.6,2.8c0,1-0.2,2-0.8,2.8c-0.6,0.8-1.4,1.4-2.3,1.7c-0.9,0.3-1.9,0.3-2.8-0.1c-1.7-0.7-3.2-1.8-4.3-3.2
			c1.2,1.3,2.8,2.3,4.4,2.9c0.8,0.3,1.7,0.2,2.5-0.1c0.8-0.3,1.4-0.9,1.9-1.6c0.8-1.4,0.5-3.3-0.2-4.8c-0.4-0.8-0.8-1.5-1.4-2.1
			c-0.5-0.6-1.2-1.1-1.9-1.6c-1.5-0.9-3.1-1.6-4.7-2.6c-0.8-0.5-1.5-1.1-2.2-1.7c-0.4-0.4-0.7-0.7-1-1.1c-0.2-0.2-0.3-0.4-0.4-0.6
			c-0.2-0.3-0.3-0.6-0.4-0.9c0-0.3,0-0.5,0-0.8c0-0.3,0.2-0.6,0.4-0.8c0.2-0.2,0.3-0.4,0.6-0.5c0.2-0.1,0.3-0.2,0.5-0.3
			c0.6-0.2,1.1-0.3,1.7-0.3c1,0,2,0.1,2.9,0.2c1.9,0.3,3.7,0.8,5.5,1.4c3.7,1.2,7.1,3.2,9.9,5.8c0.8,0.8,1.4,1.6,1.9,2.5
			c0.3,0.5,0.5,1,0.7,1.5c0.2,0.5,0.3,1,0.4,1.6l0.2,0.8c0,0.3,0,0.5,0.1,0.8l0.1,1.5c0,1,0,2-0.1,2.9c-0.4,3.8-1.2,7.5-2.3,11.1
			c-1.1,3.6-2.4,7.1-3.9,10.5L185.2,256.6z"/>
		<path class="st0" d="M245.7,236.6c0-0.1-0.1-0.5-0.1-0.8s-0.1-0.6-0.2-0.9c-0.2-0.6-0.4-1.1-0.6-1.7c-0.4-1-1.1-2-1.8-2.8
			c-1.5-1.6-3.7-2.4-5.9-2.1c-2.6,0.3-5.1,1.1-7.3,2.3c-2.4,1.2-4.7,2.7-6.8,4.5c-2.1,1.7-3.7,3.8-4.8,6.3c-0.5,1.2-0.7,2.4-0.5,3.7
			c0.1,1.1,0.7,2.2,1.8,2.7c0.2,0.1,0.5,0.1,0.8,0.1c0.3,0,0.6-0.1,0.9-0.3c0.7-0.2,1.3-0.5,1.9-0.8c1.3-0.6,2.4-1.3,3.5-2.2
			c1.1-0.9,2-2,2.6-3.2c0.7-1.2,1.1-2.6,1.4-4c-0.1,1.4-0.4,2.9-1,4.2c-0.6,1.3-1.4,2.6-2.5,3.6c-1,1-2.2,2-3.5,2.7
			c-0.6,0.4-1.3,0.7-1.9,1c-0.4,0.2-0.8,0.3-1.2,0.4c-0.4,0.1-0.9,0.1-1.4,0c-0.9-0.2-1.7-0.7-2.2-1.5c-0.5-0.7-0.8-1.5-1-2.3
			c-0.3-1.6-0.2-3.2,0.2-4.8c1-2.9,2.6-5.6,4.9-7.7c2.1-2.1,4.5-4,7-5.6c2.6-1.7,5.6-2.9,8.7-3.6c1.7-0.3,3.5-0.2,5.2,0.2
			c1.8,0.5,3.4,1.4,4.8,2.6c1.3,1.2,2.4,2.6,3.2,4.1c0.4,0.7,0.8,1.5,1.1,2.3c0.2,0.4,0.3,0.8,0.4,1.2c0.1,0.4,0.3,0.9,0.4,1.3
			L245.7,236.6z"/>
		<path class="st0" d="M324.6,225.4c0.7,1.7,1.3,3.5,1.8,5.3c0.4,1.5,1,2.9,1.6,4.3c1.2,2.5,3.2,4.6,5.7,5.8
			c1.3,0.7,2.8,1.2,4.2,1.5c1.6,0.4,3.2,0.6,4.8,0.8c3.5,0.5,7,1.1,10.4,1.9c6.9,1.7,13.4,4.5,19.3,8.4c5.8,3.8,11.2,8.2,16.1,13.1
			c-5.3-4.3-11.1-8.1-17.1-11.3c-6-3.1-12.5-5.2-19.1-6.2c-3.3-0.5-6.7-0.8-10.1-0.9c-1.8,0-3.6-0.2-5.4-0.4
			c-1.9-0.3-3.8-0.8-5.6-1.4c-1.9-0.7-3.7-1.8-5.3-3.1c-1.6-1.4-2.9-2.9-4-4.7c-1-1.6-1.9-3.4-2.6-5.1c-0.7-1.6-1.3-3.2-2-4.4
			L324.6,225.4z"/>
		<path class="st0" d="M93.4,228.9c-0.7,1.1-1.3,2.7-2,4.4c-0.7,1.8-1.6,3.5-2.6,5.1c-1.1,1.8-2.4,3.3-4,4.7
			c-1.6,1.3-3.4,2.4-5.3,3.1c-1.8,0.7-3.7,1.2-5.6,1.4c-1.8,0.2-3.6,0.4-5.4,0.4c-3.4,0.1-6.7,0.4-10.1,0.9
			c-6.7,1-13.1,3.1-19.1,6.2c-6.1,3.2-11.8,7-17.2,11.3c5-4.8,10.4-9.2,16.1-13.1c5.9-3.8,12.5-6.7,19.3-8.4
			c3.4-0.8,6.9-1.5,10.4-1.9c1.6-0.2,3.2-0.5,4.8-0.8c1.5-0.3,2.9-0.9,4.2-1.5c2.5-1.2,4.5-3.3,5.7-5.8c0.7-1.4,1.2-2.8,1.7-4.3
			c0.5-1.8,1.1-3.5,1.8-5.3L93.4,228.9z"/>
		<path class="st0" d="M206,112.9c-1.2-1.2-2.3-2.6-3.3-4.1c-1-1.5-1.8-3.1-2.3-4.8c-0.5-1.8-0.5-3.7,0-5.4c0.6-1.8,1.9-3.3,3.7-4
			c0.8-0.4,1.8-0.6,2.7-0.6c0.9,0,1.8,0.3,2.6,0.7c1.6,0.9,2.7,2.3,3.3,4c0.6,1.7,0.4,3.5-0.6,5c-0.9,1.4-2.5,2.3-4.2,2.3
			c1.6-0.1,3.1-1.1,3.9-2.5c0.8-1.4,0.8-3.1,0.2-4.6c-0.6-1.4-1.6-2.6-3-3.2c-0.7-0.3-1.4-0.4-2.1-0.4c-0.7,0.1-1.4,0.3-2.1,0.6
			c-1.3,0.6-2.2,1.8-2.5,3.2c-0.2,0.7-0.2,1.4-0.1,2.1c0.1,0.7,0.2,1.4,0.5,2.1c1.2,2.8,3,5.3,5.4,7.3L206,112.9z"/>
		<path class="st0" d="M205.2,116.5c-0.4,1.7-1,3.3-1.8,4.9c-0.8,1.6-1.7,3-2.9,4.3c-1.3,1.3-2.9,2.3-4.7,2.7
			c-1.9,0.4-3.8-0.1-5.3-1.3c-0.7-0.5-1.3-1.2-1.8-2c-0.4-0.8-0.7-1.7-0.7-2.6c0-1.8,0.6-3.5,1.8-4.8c1.1-1.3,2.8-2.1,4.5-2
			c1.7,0.1,3.2,1.1,4,2.5c-1.5-2.2-4.4-2.8-6.7-1.4c-0.5,0.3-1,0.8-1.3,1.3c-0.9,1.2-1.4,2.7-1.2,4.2c0.1,0.7,0.3,1.4,0.7,2
			c0.4,0.6,0.9,1.1,1.5,1.5c1.1,0.8,2.6,1,3.9,0.7c0.7-0.2,1.3-0.5,1.9-0.9c0.6-0.4,1.1-0.9,1.6-1.4c1.8-2.4,3-5.3,3.5-8.2
			L205.2,116.5z"/>
		<path class="st0" d="M208.5,115.1c1.7-0.5,3.4-0.8,5.1-0.9c1.7-0.2,3.5,0,5.2,0.4c1.8,0.4,3.4,1.4,4.7,2.7
			c1.2,1.4,1.8,3.3,1.5,5.2c-0.1,0.9-0.4,1.7-0.9,2.5c-0.5,0.8-1.1,1.4-1.9,1.9c-1.5,0.9-3.3,1.2-5,0.9c-1.7-0.3-3.2-1.4-3.9-2.9
			c-0.7-1.5-0.6-3.3,0.2-4.8c-0.7,1.5-0.6,3.2,0.1,4.6c0.8,1.3,2.2,2.2,3.7,2.4c1.5,0.2,3-0.1,4.3-1c0.6-0.4,1-1,1.4-1.6
			c0.3-0.6,0.5-1.3,0.5-2.1c0.1-1.4-0.4-2.8-1.4-3.7c-0.5-0.5-1.1-0.9-1.7-1.2c-0.6-0.3-1.3-0.5-2-0.6c-3-0.3-6,0-8.8,1.1
			L208.5,115.1z"/>
	</g>
	<g id="レイヤー_6">
		<path class="st0" d="M242.9,152.1c-0.1-3.6-3.1-6.4-6.7-6.3s-6.4,3.1-6.3,6.7c0.1,3.5,3,6.3,6.5,6.3
			C240,158.8,242.9,155.8,242.9,152.1z M236.4,156.5c-3.1,0-5.6-2.4-5.6-5.5c0-3.1,2.4-5.6,5.5-5.6c3.1,0,5.6,2.4,5.6,5.5
			c0,0,0,0,0,0.1C241.9,154,239.4,156.4,236.4,156.5C236.4,156.5,236.4,156.5,236.4,156.5L236.4,156.5z"/>
		<path class="st0" d="M236.4,147.6c-0.2-4.5-3.9-8-8.5-7.9c-4.5,0.2-8,3.9-7.9,8.5c0.2,4.4,3.8,7.9,8.2,7.9
			C232.8,156,236.5,152.2,236.4,147.6C236.4,147.6,236.4,147.6,236.4,147.6z M228.2,153c-3.9,0.1-7.1-3-7.1-6.9s3-7.1,6.9-7.1
			c3.9-0.1,7.1,3,7.1,6.9c0,0.1,0,0.1,0,0.2C235.1,149.9,232,153,228.2,153C228.2,153,228.2,153,228.2,153z"/>
		<path class="st0" d="M99.2,102.3c0-16.3-12.8-29.6-28.5-29.6S42,85.9,42,102.3s12.8,29.6,28.5,29.6S99.2,118.6,99.2,102.3z
			 M70.6,121.3c-13.4,0.1-24.4-10.6-24.6-24.1c-0.1-13.4,10.6-24.4,24.1-24.6s24.4,10.6,24.6,24.1c0,0.1,0,0.2,0,0.3
			C94.7,110.4,84,121.2,70.6,121.3L70.6,121.3z"/>
		<path class="st0" d="M124.8,139.5c0-13.7-10.7-24.7-23.8-24.7s-23.8,11.1-23.8,24.7s10.7,24.7,23.8,24.7S124.8,153.1,124.8,139.5z
			 M101,155.4c-11.2,0.1-20.4-8.9-20.5-20.1s8.9-20.4,20.1-20.5s20.4,8.9,20.5,20.1c0,0.1,0,0.2,0,0.2
			C121.2,146.2,112.2,155.3,101,155.4C101,155.4,101,155.4,101,155.4z"/>
		<path class="st0" d="M122.7,111.5c-0.3-8.2-7.2-14.6-15.5-14.3s-14.6,7.2-14.3,15.5c0.3,8,6.9,14.3,14.9,14.3
			C116.2,126.9,122.8,119.9,122.7,111.5C122.7,111.6,122.7,111.5,122.7,111.5z M107.8,121.5c-7,0.1-12.8-5.5-12.8-12.5
			c-0.1-7,5.5-12.8,12.5-12.8c7-0.1,12.8,5.5,12.8,12.5c0,0,0,0.1,0,0.1C120.4,115.7,114.8,121.4,107.8,121.5
			C107.8,121.5,107.8,121.5,107.8,121.5z"/>
		<path class="st0" d="M135.6,125.1c-0.1-5-4.3-8.9-9.3-8.7c-5,0.1-8.9,4.3-8.7,9.3c0.1,4.9,4.1,8.7,9,8.7
			C131.6,134.3,135.6,130.2,135.6,125.1C135.6,125.2,135.6,125.1,135.6,125.1z M126.6,131.1c-4.2,0-7.7-3.3-7.7-7.5
			c0-4.2,3.3-7.7,7.5-7.7c4.2,0,7.7,3.3,7.7,7.5c0,0,0,0.1,0,0.1C134.1,127.7,130.8,131.1,126.6,131.1L126.6,131.1z"/>
		<path class="st0" d="M128.2,162c-0.1-3.9-3.4-7-7.4-6.9c-3.9,0.1-7,3.4-6.9,7.4c0.1,3.8,3.3,6.9,7.1,6.9
			C125.1,169.3,128.3,166,128.2,162z M121.1,166.8c-3.4,0-6.1-2.6-6.1-6c0-3.4,2.6-6.1,6-6.1c3.4,0,6.1,2.6,6.1,6c0,0,0,0,0,0.1
			C127.1,164,124.4,166.7,121.1,166.8C121.1,166.7,121.1,166.7,121.1,166.8L121.1,166.8z"/>
		<path class="st0" d="M308.8,102.3c0-16.3,12.8-29.6,28.6-29.6s28.5,13.3,28.5,29.6s-12.8,29.6-28.5,29.6S308.8,118.6,308.8,102.3z
			 M337.4,121.3c13.4,0.1,24.4-10.6,24.6-24.1c0.1-13.4-10.6-24.4-24.1-24.6c-13.4-0.1-24.4,10.6-24.6,24.1c0,0.1,0,0.2,0,0.3
			C313.2,110.4,324,121.2,337.4,121.3L337.4,121.3z"/>
		<path class="st0" d="M283.1,139.5c0-13.7,10.7-24.7,23.8-24.7s23.9,11.1,23.9,24.7s-10.7,24.7-23.9,24.7S283.1,153.1,283.1,139.5z
			 M307,155.4c11.2,0.1,20.4-8.9,20.5-20.1c0.1-11.2-8.9-20.4-20.1-20.5s-20.4,8.9-20.5,20.1c0,0.1,0,0.2,0,0.2
			C286.9,146.2,295.8,155.3,307,155.4C307,155.4,307,155.4,307,155.4z"/>
		<path class="st0" d="M285.3,111.5c0.3-8.2,7.2-14.6,15.5-14.3s14.6,7.2,14.3,15.5c-0.3,8-6.9,14.3-14.9,14.3
			C291.8,126.8,285.1,119.9,285.3,111.5C285.3,111.5,285.3,111.5,285.3,111.5z M300.2,121.5c7,0.1,12.8-5.5,12.8-12.5
			c0.1-7-5.5-12.8-12.5-12.8s-12.8,5.5-12.8,12.5c0,0,0,0.1,0,0.1C287.6,115.7,293.2,121.4,300.2,121.5z"/>
		<path class="st0" d="M272.4,125.1c0.1-5,4.3-8.9,9.3-8.7c5,0.1,8.9,4.3,8.7,9.3c-0.1,4.9-4.2,8.8-9.1,8.7
			C276.3,134.3,272.3,130.2,272.4,125.1z M281.4,131.1c4.2,0,7.7-3.3,7.7-7.5c0-4.2-3.3-7.7-7.5-7.7c-4.2,0-7.7,3.3-7.7,7.5
			c0,0,0,0.1,0,0.1C273.8,127.7,277.2,131.1,281.4,131.1L281.4,131.1z"/>
		<path class="st0" d="M279.8,162c0.1-3.9,3.4-7,7.4-6.9c3.9,0.1,7,3.4,6.9,7.4c-0.1,3.8-3.3,6.9-7.1,6.9
			C282.9,169.3,279.7,166,279.8,162z M286.9,166.8c3.4,0,6.1-2.6,6.1-6c0-3.4-2.6-6.1-6-6.1c-3.4,0-6.1,2.6-6.1,6c0,0,0,0,0,0.1
			C280.9,164,283.6,166.7,286.9,166.8C286.9,166.7,286.9,166.7,286.9,166.8L286.9,166.8z"/>
		<path class="st0" d="M169.2,152.1c0.1-3.6,3.1-6.4,6.7-6.3s6.4,3.1,6.3,6.7c-0.1,3.5-3,6.3-6.5,6.3
			C172,158.8,169.1,155.8,169.2,152.1C169.2,152.1,169.2,152.1,169.2,152.1z M175.7,156.5c3.1,0,5.6-2.4,5.6-5.5
			c0-3.1-2.4-5.6-5.5-5.6c-3.1,0-5.6,2.4-5.6,5.5c0,0,0,0,0,0.1C170.2,154,172.6,156.4,175.7,156.5z"/>
		<path class="st0" d="M175.7,147.6c0.2-4.5,3.9-8,8.5-7.9c4.5,0.2,8,3.9,7.9,8.5c-0.2,4.4-3.8,7.9-8.2,7.9
			C179.2,156,175.6,152.2,175.7,147.6C175.7,147.6,175.7,147.6,175.7,147.6z M183.8,153c3.9,0.1,7.1-3,7.1-6.9s-3-7.1-6.9-7.1
			s-7.1,3-7.1,6.9c0,0.1,0,0.1,0,0.2C177,149.9,180,153,183.8,153L183.8,153z"/>
	</g>
</g>
</svg>
